<svg width="149" height="60" viewBox="0 0 149 60" fill="none" xmlns="http://www.w3.org/2000/svg">
<g clip-path="url(#clip0_13_4023)">
<path fill-rule="evenodd" clip-rule="evenodd" d="M16.7207 20.7677C15.7991 20.8747 15.0963 21.6232 15.0309 22.567C15.0028 22.9737 15.0116 23.0013 15.9334 25.3734C18.0307 30.7704 18.5388 32.0693 18.6242 32.2521C18.8313 32.6949 19.1224 33.1114 19.4861 33.4852C19.7652 33.7721 19.9493 33.9263 20.2606 34.1343C20.8078 34.4997 21.0793 34.6007 23.2085 35.2311C25.2825 35.8452 26.4156 36.2534 27.392 36.738C28.657 37.3659 29.5395 38.08 30.0978 38.9274C30.4983 39.5354 30.8531 40.6257 31.0074 41.7232C31.0678 42.1522 31.0681 43.1005 31.0081 43.4884C30.8779 44.3301 30.6178 45.0355 30.2199 45.6258C30.0083 45.9397 30.0819 45.8871 30.3896 45.5046C31.2603 44.422 32.1472 42.5718 32.5998 40.8939C33.1475 38.8633 33.222 36.6828 32.8142 34.619C32.02 30.6 29.4829 27.1316 25.9095 25.18C25.685 25.0574 24.8299 24.6091 23.6705 24.0063C23.4946 23.9148 23.2547 23.7896 23.1374 23.728C23.0201 23.6664 22.7802 23.5411 22.6043 23.4497C22.4283 23.3582 21.9219 23.0944 21.4788 22.8634C21.0358 22.6323 20.54 22.3738 20.3771 22.2889C19.8806 22.03 19.5474 21.8561 19.2991 21.7261C18.1502 21.1246 17.6639 20.8815 17.5253 20.8393C17.3799 20.7951 17.0105 20.7383 16.9178 20.7459C16.8983 20.7475 16.8096 20.7573 16.7207 20.7677Z" fill="#98A2B3"/>
<path d="M19.2254 40.9152C19.1617 40.9529 19.0724 41.0075 19.0268 41.0365C18.9811 41.0655 18.8799 41.1284 18.8017 41.1764C18.5147 41.3525 17.7515 41.8228 17.0957 42.2276C16.6647 42.4937 16.6008 42.5334 16.0532 42.8731C15.8577 42.9944 15.6498 43.1223 15.5912 43.1572C15.5325 43.1922 15.282 43.3465 15.0344 43.5001C14.7868 43.6537 14.355 43.9203 14.0748 44.0925C13.7947 44.2646 13.2935 44.5738 12.9613 44.7794C12.6289 44.985 12.1918 45.2545 11.9898 45.3784C11.7878 45.5022 11.6012 45.6219 11.5752 45.6442C11.5364 45.6774 9.73996 46.7903 8.83855 47.3395C8.15393 47.7565 7.36194 48.0354 6.55119 48.145C6.17375 48.196 5.4595 48.1962 5.08313 48.1453C4.06258 48.0075 3.12242 47.6269 2.31724 47.0257C2.0014 46.7899 1.4068 46.1958 1.17948 45.8888C0.643797 45.1656 0.297254 44.3899 0.117776 43.5122C0.0764786 43.3102 0.0374087 43.1396 0.0309878 43.1331C0.0142128 43.1161 0.0445151 43.4212 0.0991759 43.8202C0.156017 44.2351 0.27714 44.8352 0.407596 45.3484C1.41713 49.3203 4.2898 52.5509 8.17868 54.0879C9.29851 54.5303 10.4285 54.8091 11.6581 54.9458C12.1201 54.9976 13.4279 55.0181 13.91 54.9814C16.1213 54.814 18.0467 54.1631 20.0219 52.9148C20.1978 52.8036 20.5283 52.5952 20.7564 52.4516C20.9844 52.3081 21.2723 52.1255 21.3961 52.0461C21.5199 51.9666 21.6692 51.8727 21.7278 51.8375C21.7864 51.8022 21.9037 51.7285 21.9884 51.6736C22.0732 51.6188 22.4357 51.3896 22.794 51.1641L24.227 50.259L24.7191 49.9482L24.7368 49.937L24.791 49.9028L24.8168 49.8865L25.179 49.6577L26.431 48.8669C28.0262 47.8645 28.5019 47.5126 29.243 46.7866C29.552 46.484 30.0178 45.9674 30.0409 45.9019C30.0456 45.8885 30.1284 45.7608 30.2249 45.618C30.6171 45.0377 30.8786 44.3268 31.0083 43.4885C31.0683 43.1006 31.0679 42.1523 31.0076 41.7233C30.8909 40.8938 30.6259 39.953 30.3402 39.354C29.8716 38.3716 28.8733 37.4791 27.4393 36.7602C27.0433 36.5617 26.6344 36.3801 26.5888 36.3825C26.5672 36.3836 25.2327 37.1993 23.6233 38.1952C22.0139 39.1911 20.6172 40.0555 20.5195 40.1161C20.4217 40.1768 20.2538 40.2794 20.1463 40.344L19.2254 40.9152Z" fill="#98A2B3"/>
<path d="M0.00689228 36.1375L0.0137874 43.0738L0.103563 43.4766C0.384284 44.7359 0.870664 45.6439 1.71621 46.4872C2.11393 46.8839 2.41806 47.123 2.84905 47.3781C3.76103 47.9178 4.74256 48.184 5.81768 48.1835C6.9437 48.183 7.91777 47.9021 8.92153 47.2886C9.09092 47.1851 9.75464 46.7764 10.3964 46.3805L11.5633 45.6606V37.431V29.2013L11.563 21.6727C11.5627 16.8696 11.554 14.0171 11.5388 13.7933C11.4431 12.387 10.8549 11.0942 9.86597 10.1163C9.56245 9.8162 9.30312 9.61575 8.53057 9.08412C8.14614 8.81955 7.44243 8.3349 6.9668 8.00713C6.49116 7.67933 5.70752 7.13933 5.22534 6.8071C4.74317 6.47489 4.05547 6.00091 3.6971 5.75383C2.95055 5.23909 2.89212 5.20329 2.66644 5.12254C2.3729 5.01753 2.06183 4.97896 1.76609 5.0109C0.904116 5.10399 0.214093 5.72635 0.0347333 6.57247C0.00682236 6.70411 0.00168006 8.45602 0.00132466 17.9646L0.000922637 29.2013H0L0.00689228 36.1375Z" fill="#98A2B3"/>
<path d="M48.4863 44.6199V15.2474H57.814C60.6538 15.2474 62.9136 15.8693 64.5718 17.113C66.23 18.3567 67.0591 19.9735 67.0591 21.9635C67.0591 23.6218 66.5825 25.0728 65.6494 26.3165C64.6519 27.5785 63.2808 28.4926 61.7319 28.9283V29.0112C63.7632 29.2393 65.3594 29.9855 66.5615 31.2707C67.7847 32.5144 68.3857 34.1727 68.3857 36.1833C68.3857 38.6915 67.3906 40.7436 65.4214 42.2775C63.4521 43.8114 60.9443 44.6199 57.918 44.6199H48.4863ZM53.3574 19.1651V27.5188H56.5083C58.208 27.5188 59.5347 27.1042 60.4883 26.3373C61.4624 25.5081 61.939 24.3888 61.939 22.9377C61.939 20.4088 60.2603 19.1651 56.9023 19.1651H53.3574ZM53.3574 31.4365V40.7229H57.5034C59.3272 40.7229 60.7368 40.3083 61.7109 39.4792C62.7061 38.6293 63.2036 37.4685 63.2036 35.9968C63.2036 32.9497 61.1099 31.4365 56.8814 31.4365H53.3574ZM74.335 19.248C73.5679 19.248 72.8838 18.9786 72.3447 18.4811C71.7852 17.9836 71.5156 17.341 71.5156 16.5533C71.5156 15.7657 71.7852 15.123 72.3447 14.6048C72.9048 14.0866 73.5679 13.8379 74.3555 13.8379C75.1431 13.8379 75.8272 14.0866 76.3872 14.6048C76.9468 15.123 77.2163 15.7864 77.2163 16.5533C77.2163 17.2996 76.9468 17.9214 76.3872 18.4604C75.8272 18.9786 75.1431 19.248 74.335 19.248ZM76.6978 44.6199H71.9512V23.6425H76.7187L76.6978 44.6199ZM100.225 44.6199H95.478V32.8045C95.478 28.8661 94.0894 26.9176 91.3325 26.9176C89.8813 26.9176 88.6792 27.4773 87.7256 28.5759C86.7661 29.7154 86.2637 31.1707 86.3159 32.6595V44.6199H81.5483V23.6425H86.3159V27.1249H86.3989C87.0483 25.8934 88.0288 24.868 89.2305 24.1646C90.4321 23.4613 91.8061 23.1082 93.1978 23.145C95.478 23.145 97.2192 23.8913 98.4214 25.3837C99.6235 26.8555 100.225 28.9905 100.225 31.8096V44.6199ZM123.752 42.9409C123.752 50.6312 119.896 54.4868 112.144 54.4868C109.69 54.543 107.252 54.0767 104.993 53.1186V48.7656C107.272 50.0922 109.47 50.7348 111.522 50.7348C116.497 50.7348 119.005 48.2888 119.005 43.3761V41.096H118.922C118.233 42.3593 117.204 43.404 115.95 44.1112C114.697 44.8184 113.271 45.1598 111.833 45.0966C110.66 45.1343 109.494 44.9037 108.423 44.4223C107.353 43.9409 106.406 43.2216 105.656 42.319C104.004 40.1698 103.173 37.5016 103.313 34.7945C103.313 31.2292 104.143 28.4101 105.842 26.2958C107.542 24.1814 109.822 23.145 112.766 23.145C115.522 23.145 117.575 24.2851 118.922 26.5445H119.005V23.6425H123.772L123.752 42.9409ZM119.046 35.0225V32.2863C119.046 30.8146 118.549 29.5501 117.575 28.5137C117.116 28.0042 116.552 27.5997 115.922 27.3278C115.293 27.056 114.612 26.9231 113.927 26.9384C112.123 26.9384 110.713 27.6224 109.698 28.949C108.587 30.5882 108.048 32.5482 108.164 34.525C108.164 36.5979 108.662 38.2355 109.615 39.4792C110.61 40.7229 111.895 41.324 113.512 41.324C115.17 41.324 116.497 40.7229 117.513 39.5621C118.549 38.3598 119.046 36.8674 119.046 35.0018V35.0225Z" fill="#98A2B3"/>
</g>
<defs>
<clipPath id="clip0_13_4023">
<rect width="123.779" height="50" fill="white" transform="translate(0 5)"/>
</clipPath>
</defs>
</svg>
