<svg width="149" height="62" viewBox="0 0 149 62" fill="none" xmlns="http://www.w3.org/2000/svg">
<g clip-path="url(#clip0_13_3966)">
<path d="M63.2542 36.8949C63.2542 43.8734 57.7949 49.0157 51.0951 49.0157C44.3953 49.0157 38.936 43.8734 38.936 36.8949C38.936 29.8672 44.3953 24.774 51.0951 24.774C57.7949 24.774 63.2542 29.8672 63.2542 36.8949ZM57.9315 36.8949C57.9315 32.534 54.7674 29.5502 51.0951 29.5502C47.4228 29.5502 44.2587 32.534 44.2587 36.8949C44.2587 41.212 47.4228 44.2395 51.0951 44.2395C54.7674 44.2395 57.9315 41.2066 57.9315 36.8949Z" fill="#98A2B3"/>
<path d="M89.4852 36.8949C89.4852 43.8734 84.0259 49.0157 77.3261 49.0157C70.6263 49.0157 65.167 43.8734 65.167 36.8949C65.167 29.8727 70.6263 24.774 77.3261 24.774C84.0259 24.774 89.4852 29.8672 89.4852 36.8949ZM84.1625 36.8949C84.1625 32.534 80.9984 29.5502 77.3261 29.5502C73.6538 29.5502 70.4897 32.534 70.4897 36.8949C70.4897 41.212 73.6538 44.2395 77.3261 44.2395C80.9984 44.2395 84.1625 41.2066 84.1625 36.8949Z" fill="#98A2B3"/>
<path d="M114.623 25.5063V47.267C114.623 56.2182 109.344 59.8742 103.103 59.8742C97.2288 59.8742 93.6931 55.945 92.3597 52.7317L96.9938 50.8027C97.819 52.7754 99.8409 55.1034 103.098 55.1034C107.093 55.1034 109.568 52.6388 109.568 47.9993V46.256H109.382C108.191 47.726 105.896 49.0102 103 49.0102C96.9392 49.0102 91.387 43.7313 91.387 36.9386C91.387 30.0967 96.9392 24.774 103 24.774C105.89 24.774 108.186 26.0583 109.382 27.4846H109.568V25.5118H114.623V25.5063ZM109.945 36.9386C109.945 32.6706 107.098 29.5502 103.475 29.5502C99.8027 29.5502 96.726 32.6706 96.726 36.9386C96.726 41.1628 99.8027 44.2395 103.475 44.2395C107.098 44.2395 109.945 41.1628 109.945 36.9386Z" fill="#98A2B3"/>
<path d="M122.957 12.7516V48.2725H117.765V12.7516H122.957Z" fill="#98A2B3"/>
<path d="M143.188 40.8842L147.319 43.6385C145.986 45.6112 142.772 49.0103 137.22 49.0103C130.334 49.0103 125.192 43.6877 125.192 36.8895C125.192 29.6815 130.378 24.7687 136.624 24.7687C142.914 24.7687 145.991 29.7744 146.997 32.4794L147.548 33.8566L131.345 40.5673C132.586 42.9991 134.515 44.2396 137.22 44.2396C139.931 44.2396 141.81 42.9062 143.188 40.8842ZM130.471 36.5234L141.302 32.0259C140.707 30.5121 138.914 29.4574 136.805 29.4574C134.1 29.4574 130.334 31.8455 130.471 36.5234Z" fill="#98A2B3"/>
<path d="M19.2852 33.7417V28.5994H36.6139C36.7833 29.4956 36.8707 30.5558 36.8707 31.7034C36.8707 35.5615 35.816 40.3322 32.417 43.7313C29.1108 47.1741 24.8865 49.0102 19.2906 49.0102C8.91852 49.0102 0.196777 40.5617 0.196777 30.1896C0.196777 19.8175 8.91852 11.369 19.2906 11.369C25.0286 11.369 29.1163 13.6205 32.1874 16.5551L28.5588 20.1837C26.3566 18.118 23.3728 16.5114 19.2852 16.5114C11.711 16.5114 5.78722 22.6155 5.78722 30.1896C5.78722 37.7638 11.711 43.8679 19.2852 43.8679C24.198 43.8679 26.9959 41.8951 28.7884 40.1027C30.242 38.6491 31.1983 36.5725 31.5754 33.7363L19.2852 33.7417Z" fill="#98A2B3"/>
</g>
<defs>
<clipPath id="clip0_13_3966">
<rect width="148.641" height="50.2757" fill="white" transform="translate(0 11.1121)"/>
</clipPath>
</defs>
</svg>
