<svg width="149" height="60" viewBox="0 0 149 60" fill="none" xmlns="http://www.w3.org/2000/svg">
<g clip-path="url(#clip0_13_3960)">
<path d="M4.87854 34.7843C4.87854 36.5089 5.25707 37.833 5.75184 38.6341C6.40053 39.6833 7.36807 40.1278 8.35446 40.1278C9.62671 40.1278 10.7906 39.8121 13.0335 36.71C14.8304 34.2236 16.9477 30.7335 18.3723 28.5456L20.7848 24.8388C22.4607 22.2644 24.4005 19.4026 26.6246 17.4628C28.4403 15.8796 30.399 15 32.3702 15C35.6796 15 38.832 16.9178 41.2445 20.5147C43.8848 24.4539 45.1665 29.4157 45.1665 34.5361C45.1665 37.5801 44.5665 39.8168 43.5456 41.5838C42.5592 43.2927 40.6367 45 37.4026 45V40.1278C40.1718 40.1278 40.8629 37.5833 40.8629 34.6712C40.8629 30.5215 39.8953 25.9162 37.7639 22.6257C36.2513 20.2916 34.2911 18.8654 32.1346 18.8654C29.8021 18.8654 27.9252 20.6246 25.8157 23.7613C24.6943 25.4278 23.5429 27.4586 22.2503 29.7503L20.8272 32.2712C17.9686 37.3398 17.2445 38.4943 15.8152 40.3995C13.31 43.7356 11.1707 45 8.35446 45C5.01362 45 2.90105 43.5534 1.59267 41.3733C0.524608 39.5969 0 37.266 0 34.61L4.87854 34.7843Z" fill="#98A2B3"/>
<path d="M3.84717 20.8586C6.08382 17.411 9.31157 15 13.0137 15C15.1576 15 17.2891 15.6346 19.5147 17.4518C21.9493 19.4387 24.544 22.7105 27.7812 28.1026L28.9419 30.0377C31.744 34.7058 33.3383 37.1073 34.2713 38.2398C35.4713 39.6943 36.3116 40.1278 37.4032 40.1278C40.1723 40.1278 40.8634 37.5833 40.8634 34.6712L45.1671 34.5361C45.1671 37.5801 44.5671 39.8168 43.5461 41.5838C42.5598 43.2927 40.6372 45 37.4032 45C35.3927 45 33.6116 44.5634 31.642 42.7053C30.1278 41.2791 28.3577 38.7456 26.9959 36.4681L22.9451 29.7016C20.9126 26.3058 19.0482 23.7738 17.9692 22.6272C16.8084 21.3942 15.3163 19.9052 12.9351 19.9052C11.0079 19.9052 9.37126 21.2576 8.00162 23.3262L3.84717 20.8586Z" fill="#98A2B3"/>
<path d="M12.9346 19.9052C11.0073 19.9052 9.37069 21.2576 8.00105 23.3262C6.0644 26.2492 4.87854 30.6032 4.87854 34.7843C4.87854 36.5089 5.25707 37.833 5.75184 38.634L1.59267 41.3733C0.524608 39.5969 0 37.266 0 34.61C0 29.7801 1.32566 24.7461 3.8466 20.8586C6.08325 17.411 9.311 15 13.0131 15L12.9346 19.9052Z" fill="#98A2B3"/>
<path d="M54.6506 15.9486H60.2941L69.8894 33.3078L79.4863 15.9486H85.0072V44.4722H80.4035V22.6114L71.9878 37.7497H67.6684L59.2543 22.6114V44.4722H54.6506V15.9486ZM99.4323 26.5837C96.1308 26.5837 94.1423 29.0685 93.6664 32.1455H104.872C104.641 28.9758 102.812 26.5837 99.4323 26.5837ZM89.102 33.8984C89.102 27.424 93.2863 22.712 99.5124 22.712C105.637 22.712 109.293 27.3643 109.293 34.2439V35.5083H93.6664C94.2208 38.8554 96.4418 41.1109 100.023 41.1109C102.88 41.1109 104.666 40.2392 106.359 38.645L108.805 41.6403C106.5 43.7591 103.57 44.9811 99.8596 44.9811C93.1198 44.9811 89.102 40.0664 89.102 33.8984ZM114.875 26.9921H110.638V23.2224H114.875V16.9884H119.317V23.2224H125.755V26.9921H119.317V36.5465C119.317 39.8088 120.36 40.968 122.923 40.968C124.094 40.968 124.764 40.8675 125.755 40.7026V44.4314C124.521 44.78 123.343 44.9403 122.067 44.9403C117.272 44.9403 114.875 42.3204 114.875 37.0759V26.9921ZM144.459 30.658C143.567 28.4057 141.577 26.747 138.652 26.747C134.851 26.747 132.418 29.4439 132.418 33.8371C132.418 38.1204 134.658 40.9476 138.47 40.9476C141.467 40.9476 143.606 39.2041 144.459 37.035V30.658ZM148.901 44.4722H144.541V41.4973C143.322 43.2486 141.104 44.9811 137.512 44.9811C131.735 44.9811 127.874 40.145 127.874 33.8371C127.874 27.4696 131.828 22.712 137.757 22.712C140.688 22.712 142.987 23.8837 144.541 25.9523V23.2224H148.901V44.4722Z" fill="#98A2B3"/>
</g>
<defs>
<clipPath id="clip0_13_3960">
<rect width="148.901" height="30" fill="white" transform="translate(0 15)"/>
</clipPath>
</defs>
</svg>
