<svg width="149" height="60" viewBox="0 0 149 60" fill="none" xmlns="http://www.w3.org/2000/svg">
<g clip-path="url(#clip0_13_3998)">
<path d="M8.68859 19.9796H0V12.0494H26.9147V19.9796H18.2158L18.2199 43.219H8.69476L8.68859 19.9796Z" fill="#98A2B3"/>
<path d="M34.8409 33.0339C33.7947 33.5499 32.6169 33.8479 31.4452 34.1028C29.5275 34.5283 28.5244 34.999 28.5182 36.5201C28.5121 37.5663 29.6364 38.6146 31.2006 38.6249C33.1575 38.6352 34.6847 37.4718 34.8307 35.1223L34.8409 33.0339ZM43.0753 38.1727C43.0629 39.8685 43.139 41.7821 44.0866 43.223L35.3034 43.1716C35.0896 42.5612 34.9643 41.6465 35.0136 41.0401H34.9252C33.0876 43.1162 30.4319 43.7081 27.6467 43.6937C23.2993 43.667 19.7022 41.5601 19.7289 36.8202C19.7721 29.6876 28.1215 29.998 32.5162 29.1984C33.6919 28.9867 34.8677 28.6454 34.8738 27.2107C34.8841 25.6876 33.4535 25.112 32.0619 25.1059C29.4103 25.0935 28.8779 26.4358 28.8307 27.3916L20.8286 27.3464C21.1246 20.999 27.1308 19.9897 32.4812 20.0206C43.2644 20.0843 43.1534 24.5632 43.1246 28.9106L43.0753 38.1727Z" fill="#98A2B3"/>
<path d="M56.3481 26.4213C53.2607 26.4028 52.5495 29.3133 52.5331 31.9629C52.5167 34.6576 53.197 37.5785 56.2823 37.597C59.3717 37.6134 60.0829 34.7049 60.0994 32.006C60.1158 29.3565 59.4355 26.4356 56.3481 26.4213ZM44.344 11.9999H52.9524L52.8908 23.1838H52.9771C54.2926 21.2784 56.603 20.1602 59.1703 20.1746C66.7345 20.2198 68.7407 26.6659 68.7099 31.9732C68.677 37.6258 65.5526 43.9115 59.1621 43.8765C54.9442 43.8498 53.6492 42.2342 52.5701 40.7912H52.4838L52.4673 43.2188H44.344V11.9999Z" fill="#98A2B3"/>
<path d="M80.7918 18.3165C77.5298 18.2959 77.0755 21.4696 77.0611 23.8602C77.0488 26.2507 77.464 29.4737 80.724 29.4922C83.984 29.5107 84.4404 26.2959 84.4547 23.9013C84.4691 21.5107 84.0519 18.335 80.7918 18.3165ZM80.6891 35.7533C72.2081 35.7039 68.4136 30.0719 68.4527 23.8108C68.4897 17.5477 72.3458 12.0061 80.8268 12.0575C89.3078 12.1048 93.1022 17.6916 93.0652 23.9547C93.0262 30.2137 89.1701 35.8026 80.6891 35.7533Z" fill="#98A2B3"/>
<path d="M102.159 18.3144C98.8989 18.2938 98.4446 21.4675 98.4323 23.8601C98.4159 26.2506 98.8331 29.4716 102.095 29.4901C105.353 29.5107 105.809 26.2938 105.824 23.9012C105.836 21.5107 105.419 18.3329 102.159 18.3144ZM102.056 35.7532C93.5772 35.7018 89.7828 30.0697 89.8218 23.8087C89.8568 17.5477 93.7149 12.004 102.194 12.0533C110.673 12.1026 114.467 17.6895 114.432 23.9505C114.395 30.2157 110.537 35.8005 102.056 35.7532Z" fill="#98A2B3"/>
<path d="M115.361 12.0555H123.788V43.219H115.361V12.0555Z" fill="#98A2B3"/>
<path d="M139.481 32.9599C138.434 33.4737 137.256 33.7718 136.085 34.0246C134.165 34.4501 133.166 34.9229 133.156 36.4439C133.15 37.4881 134.274 38.5364 135.838 38.5467C137.797 38.557 139.324 37.3936 139.468 35.0442L139.481 32.9599ZM147.768 38.0925C147.76 39.7882 147.665 41.778 148.615 43.2189H139.961C139.75 42.6084 139.604 41.5683 139.653 40.9619L139.565 40.9599C137.727 43.0359 135.074 43.63 132.288 43.6135C127.939 43.5847 124.342 41.4779 124.371 36.7379C124.414 29.6053 132.759 29.9177 137.156 29.1181C138.331 28.9064 139.507 28.5652 139.515 27.1305C139.526 25.6074 138.095 25.0339 136.701 25.0257C134.048 25.0113 133.52 26.3556 133.472 27.3114L125.466 27.2682C125.764 20.9208 131.772 19.9095 137.121 19.9445C147.904 20.0041 147.793 24.4851 147.766 28.8324V38.0925H147.768Z" fill="#98A2B3"/>
<path d="M71.6822 35.7554C77.7952 38.4871 84.1385 39.6999 91.0511 39.7389C98.3132 39.7821 103.82 38.4111 110.79 35.7554L110.749 43.2785C104.511 46.372 97.7438 48.0411 91.0018 48.002C83.6534 47.9589 78.3584 46.4501 71.637 43.2785L71.6822 35.7554Z" fill="#98A2B3"/>
</g>
<defs>
<clipPath id="clip0_13_3998">
<rect width="148.617" height="36" fill="white" transform="translate(0 12)"/>
</clipPath>
</defs>
</svg>
