<svg width="164" height="60" viewBox="0 0 164 60" fill="none" xmlns="http://www.w3.org/2000/svg">
<g clip-path="url(#clip0_13_3974)">
<path d="M31.2293 23.3804C34.3039 25.577 38.0703 26.8695 42.1382 26.8695V19.0456C41.3684 19.0457 40.6005 18.9655 39.8473 18.806V24.9645C35.7797 24.9645 32.0137 23.6721 28.9384 21.4756V37.4419C28.9384 45.4291 22.4602 51.9036 14.4694 51.9036C11.4878 51.9036 8.71661 51.0027 6.41455 49.4575C9.04198 52.1427 12.7061 53.8084 16.7599 53.8084C24.7511 53.8084 31.2296 47.3339 31.2296 39.3464V23.3804H31.2293ZM34.0555 15.487C32.4842 13.7713 31.4525 11.554 31.2293 9.10276V8.09644H29.0583C29.6048 11.212 31.4687 13.8737 34.0555 15.487ZM11.4687 43.3284C10.5908 42.1779 10.1164 40.7706 10.1186 39.3235C10.1186 35.6705 13.0817 32.7086 16.7373 32.7086C17.4186 32.7084 18.0958 32.8127 18.745 33.0186V25.0198C17.9863 24.9158 17.2205 24.8717 16.4551 24.8879V31.1138C15.8053 30.9079 15.1278 30.8033 14.4464 30.8039C10.7907 30.8039 7.82778 33.7655 7.82778 37.4191C7.82778 40.0024 9.30884 42.2389 11.4687 43.3284Z" fill="#98A2B3"/>
<path d="M28.9389 21.4754C32.0143 23.6719 35.7802 24.9644 39.8478 24.9644V18.8058C37.5773 18.3224 35.5673 17.1365 34.056 15.487C31.4691 13.8736 29.6053 11.2118 29.0589 8.09644H23.3563V39.3461C23.3433 42.9891 20.3853 45.939 16.7375 45.939C14.5879 45.939 12.6782 44.9149 11.4688 43.3284C9.30906 42.2389 7.828 40.0022 7.828 37.4192C7.828 33.766 10.7909 30.8041 14.4466 30.8041C15.147 30.8041 15.8221 30.9131 16.4553 31.1139V24.8881C8.60489 25.0502 2.29126 31.4614 2.29126 39.3462C2.29126 43.2823 3.8635 46.8505 6.41526 49.4577C8.71732 51.0026 11.4886 51.9037 14.4701 51.9037C22.4611 51.9037 28.9391 45.429 28.9391 37.4419V21.4754H28.9389Z" fill="#98A2B3"/>
<path d="M131.082 45.3565C136.8 45.3565 141.435 40.7585 141.435 35.0873C141.435 29.4162 136.8 24.8175 131.082 24.8175H129.522C135.24 24.8175 139.875 29.4161 139.875 35.0873C139.875 40.7585 135.24 45.3565 129.522 45.3565H131.082Z" fill="#98A2B3"/>
<path d="M129.381 24.8175H127.821C122.103 24.8175 117.467 29.4161 117.467 35.0873C117.467 40.7585 122.103 45.3565 127.821 45.3565H129.381C123.662 45.3565 119.027 40.7585 119.027 35.0873C119.027 29.4162 123.662 24.8175 129.381 24.8175Z" fill="#98A2B3"/>
<path d="M50.6699 20.1759V25.3812H56.7672V45.2159H62.8669V25.5218H67.8302L69.532 20.1761L50.6699 20.1759ZM100.591 20.1759V25.3812H106.688V45.2159H112.788V25.5218H117.751L119.453 20.1761L100.591 20.1759ZM70.6676 23.1298C70.6676 21.4988 71.9988 20.1759 73.6435 20.1759C75.2896 20.1759 76.6222 21.4988 76.6222 23.1298C76.6222 24.7611 75.2904 26.0839 73.6435 26.0839C71.9988 26.0831 70.6676 24.7611 70.6676 23.1298ZM70.6676 28.1946H76.6222V45.2159H70.6676V28.1946ZM79.1755 20.1759V45.2157H85.1324V38.7453L86.9762 37.0558L92.7901 45.3562H99.1715L90.8034 33.2584L98.3201 25.9426H91.0876L85.1324 31.8506V20.1759H79.1755ZM143.419 20.1759V45.2157H149.377V38.7453L151.22 37.0558L157.036 45.3562H163.418L155.05 33.2584L162.566 25.9426H155.334L149.377 31.8506V20.1759H143.419Z" fill="#98A2B3"/>
<path d="M129.521 45.3565C135.239 45.3565 139.875 40.7585 139.875 35.0873C139.875 29.4162 135.239 24.8175 129.521 24.8175H129.38C123.662 24.8175 119.026 29.4161 119.026 35.0873C119.026 40.7585 123.662 45.3565 129.38 45.3565H129.521ZM124.416 35.0873C124.416 32.3287 126.671 30.0941 129.452 30.0941C132.23 30.0941 134.485 32.3287 134.485 35.0873C134.485 37.846 132.23 40.0818 129.452 40.0818C126.671 40.0813 124.416 37.846 124.416 35.0873Z" fill="#98A2B3"/>
</g>
<defs>
<clipPath id="clip0_13_3974">
<rect width="163.417" height="47.6164" fill="white" transform="translate(0 6.19189)"/>
</clipPath>
</defs>
</svg>
